<?xml version="1.0" standalone="no"?>
<!DOCTYPE svg PUBLIC "-//W3C//DTD SVG 20010904//EN"
 "http://www.w3.org/TR/2001/REC-SVG-20010904/DTD/svg10.dtd">
<svg version="1.0" xmlns="http://www.w3.org/2000/svg"
 width="2048.000000pt" height="2048.000000pt" viewBox="0 0 2048.000000 2048.000000"
 preserveAspectRatio="xMidYMid meet">
<metadata>
Created by potrace 1.14, written by Peter Selinger 2001-2017
</metadata>
<g transform="translate(0.000000,2048.000000) scale(0.100000,-0.100000)"
fill="#000000" stroke="none">
<path d="M5097 18774 c-1 -1 -49 -4 -107 -8 -86 -5 -187 -22 -311 -51 -106
-24 -331 -120 -427 -181 -29 -19 -56 -34 -61 -34 -5 0 -11 -4 -13 -8 -1 -5
-32 -28 -68 -52 -66 -45 -286 -257 -330 -319 -14 -19 -35 -47 -47 -62 -13 -15
-23 -30 -23 -34 0 -3 -11 -21 -24 -38 -34 -46 -110 -189 -146 -277 -34 -83
-86 -254 -95 -315 -4 -22 -8 -51 -10 -65 -3 -14 -8 -52 -12 -85 -10 -81 -9
-13932 1 -14018 8 -71 9 -76 27 -167 87 -437 386 -859 778 -1099 223 -137 447
-213 731 -248 67 -8 6797 -9 6805 -1 3 3 -8 29 -25 58 -36 61 -217 432 -245
500 -10 25 -24 59 -31 75 -111 260 -266 802 -296 1035 -2 14 -6 27 -10 30 -3
3 -1363 5 -3022 5 l-3016 -1 2 6826 3 6825 847 0 c757 1 848 -1 852 -15 2 -8
3 -1543 2 -3411 l-1 -3397 25 20 c13 11 65 56 114 101 50 45 113 102 141 127
27 25 52 47 55 50 3 3 70 64 150 135 80 72 150 134 156 140 31 28 187 168 239
215 33 29 62 56 65 59 3 3 43 40 90 81 46 41 94 84 106 95 11 11 56 52 99 90
43 39 83 75 89 80 6 6 56 50 111 99 55 49 102 92 105 95 3 3 46 42 95 85 50
44 95 85 100 90 6 6 51 47 100 91 50 44 92 82 95 85 3 3 49 45 102 93 82 74
100 86 111 75 7 -7 46 -42 86 -78 40 -36 83 -74 95 -85 12 -11 57 -51 101 -90
43 -38 90 -81 105 -95 15 -14 60 -54 100 -90 40 -36 78 -70 84 -75 6 -6 56
-51 111 -100 106 -95 161 -145 205 -185 15 -14 58 -53 96 -86 38 -34 81 -73
95 -85 66 -61 187 -170 206 -186 20 -18 166 -149 210 -190 13 -12 55 -49 93
-83 38 -34 79 -71 93 -83 13 -12 59 -53 102 -92 43 -38 90 -81 105 -95 14 -14
59 -54 100 -90 40 -36 86 -77 103 -92 16 -16 30 -28 31 -28 0 0 1 1536 1 3413
l0 3412 2133 0 2132 1 0 -3874 0 -3874 78 6 c42 4 104 9 137 12 33 3 83 7 110
9 66 4 200 15 250 20 168 18 292 21 410 11 50 -4 115 -9 145 -11 30 -2 80 -6
110 -9 30 -3 87 -8 125 -11 116 -8 206 -15 275 -21 l66 -5 -1 3948 c-1 2171
-5 3973 -9 4003 -19 136 -58 290 -108 420 -32 85 -160 324 -188 350 -3 3 -25
32 -49 65 -49 66 -218 239 -296 301 -247 198 -568 327 -900 360 -54 6 -10411
13 -10418 8z"/>
<path d="M14568 6824 c-2 -1 -38 -5 -81 -9 -43 -3 -88 -8 -100 -11 -12 -2 -35
-7 -52 -10 -16 -2 -46 -9 -65 -14 -19 -5 -46 -11 -60 -14 -60 -11 -245 -82
-355 -136 -274 -135 -496 -323 -703 -595 -37 -49 -172 -277 -172 -291 0 -2
-11 -27 -24 -56 -29 -65 -92 -244 -100 -284 -2 -16 -12 -60 -20 -99 -25 -115
-31 -191 -30 -370 0 -168 5 -237 25 -338 5 -29 12 -65 15 -82 23 -133 121
-401 216 -589 70 -138 238 -414 300 -491 4 -5 40 -53 80 -105 64 -85 176 -227
203 -256 5 -6 30 -36 55 -65 25 -30 65 -76 90 -104 25 -27 50 -55 55 -61 94
-107 276 -295 510 -529 293 -293 472 -466 875 -845 79 -74 162 -153 185 -175
35 -35 278 -262 309 -290 6 -6 49 -42 96 -80 47 -38 87 -72 90 -75 9 -10 285
-236 296 -243 6 -4 21 2 33 12 12 11 41 34 63 53 46 37 240 198 278 231 14 12
50 42 80 67 30 25 64 54 76 65 40 38 299 282 338 319 59 55 311 294 371 351
358 343 485 467 634 616 252 251 412 420 561 589 36 40 70 78 75 84 33 36 137
164 198 241 4 6 17 21 28 35 40 47 187 255 251 355 209 323 366 702 404 973 3
20 11 78 17 127 13 95 15 343 3 435 -4 30 -9 73 -12 95 -9 71 -44 218 -70 300
-31 97 -107 275 -140 327 -13 21 -24 40 -24 43 0 10 -101 157 -144 210 -75 93
-240 251 -338 323 -53 40 -101 72 -107 72 -5 0 -11 3 -13 8 -6 13 -153 90
-279 146 -73 32 -227 78 -337 101 -134 28 -254 39 -417 39 -152 0 -231 -8
-375 -35 -30 -6 -68 -13 -85 -15 -16 -3 -37 -7 -45 -10 -8 -3 -53 -17 -100
-30 -318 -92 -586 -250 -818 -482 l-103 -103 -27 32 c-61 74 -218 220 -261
243 -9 5 -18 12 -21 15 -6 7 -113 78 -155 103 -50 30 -226 114 -295 141 -126
50 -360 110 -470 121 -30 3 -68 9 -85 12 -29 6 -322 13 -327 8z"/>
</g>
</svg>
